<mxfile host="Electron" modified="2023-12-04T07:00:38.714Z" agent="Mozilla/5.0 (Windows NT 10.0; Win64; x64) AppleWebKit/537.36 (KHTML, like Gecko) draw.io/22.1.2 Chrome/114.0.5735.289 Electron/25.9.4 Safari/537.36" etag="VmRV2iTwjxgBGTU2wSf1" version="22.1.2" type="device">
  <diagram name="Page-1" id="C-NZV8uJYAg1rKS5QnhG">
    <mxGraphModel dx="4998" dy="3492" grid="1" gridSize="10" guides="1" tooltips="1" connect="1" arrows="1" fold="1" page="1" pageScale="1" pageWidth="850" pageHeight="1100" math="0" shadow="0">
      <root>
        <mxCell id="0" />
        <mxCell id="1" parent="0" />
        <mxCell id="VXKyjhs7TOJEmw1eBfXi-8" value="" style="rounded=0;whiteSpace=wrap;html=1;fillColor=#dae8fc;strokeColor=#6c8ebf;" vertex="1" parent="1">
          <mxGeometry x="-830" y="-1010" width="3990" height="2760" as="geometry" />
        </mxCell>
        <mxCell id="VXKyjhs7TOJEmw1eBfXi-6" value="" style="rounded=0;whiteSpace=wrap;html=1;fillColor=#f8cecc;strokeColor=#b85450;" vertex="1" parent="1">
          <mxGeometry x="-720" y="-820" width="1830" height="2510" as="geometry" />
        </mxCell>
        <mxCell id="VXKyjhs7TOJEmw1eBfXi-1" value="" style="rounded=0;whiteSpace=wrap;html=1;fillColor=#d5e8d4;strokeColor=#82b366;" vertex="1" parent="1">
          <mxGeometry x="-650" y="-740" width="720" height="2380" as="geometry" />
        </mxCell>
        <mxCell id="VXKyjhs7TOJEmw1eBfXi-2" value="" style="rounded=0;whiteSpace=wrap;html=1;fillColor=#e1d5e7;strokeColor=#9673a6;" vertex="1" parent="1">
          <mxGeometry x="-620" y="-670" width="140" height="440" as="geometry" />
        </mxCell>
        <mxCell id="VXKyjhs7TOJEmw1eBfXi-3" value="" style="rounded=0;whiteSpace=wrap;html=1;fillColor=#e1d5e7;strokeColor=#9673a6;" vertex="1" parent="1">
          <mxGeometry x="-450" y="-670" width="140" height="440" as="geometry" />
        </mxCell>
        <mxCell id="VXKyjhs7TOJEmw1eBfXi-4" value="" style="rounded=0;whiteSpace=wrap;html=1;fillColor=#e1d5e7;strokeColor=#9673a6;" vertex="1" parent="1">
          <mxGeometry x="-280" y="-670" width="140" height="440" as="geometry" />
        </mxCell>
        <mxCell id="VXKyjhs7TOJEmw1eBfXi-5" value="" style="rounded=0;whiteSpace=wrap;html=1;fillColor=#e1d5e7;strokeColor=#9673a6;" vertex="1" parent="1">
          <mxGeometry x="-110" y="-670" width="140" height="440" as="geometry" />
        </mxCell>
        <mxCell id="VXKyjhs7TOJEmw1eBfXi-7" value="Kubernetes Node" style="rounded=0;whiteSpace=wrap;html=1;" vertex="1" parent="1">
          <mxGeometry x="-720" y="-820" width="120" height="30" as="geometry" />
        </mxCell>
        <mxCell id="VXKyjhs7TOJEmw1eBfXi-9" value="Kubernetes cluster" style="rounded=0;whiteSpace=wrap;html=1;" vertex="1" parent="1">
          <mxGeometry x="-830" y="-1010" width="120" height="60" as="geometry" />
        </mxCell>
        <mxCell id="VXKyjhs7TOJEmw1eBfXi-10" value="" style="rounded=0;whiteSpace=wrap;html=1;fillColor=#f8cecc;strokeColor=#b85450;" vertex="1" parent="1">
          <mxGeometry x="1210" y="-820" width="1830" height="2510" as="geometry" />
        </mxCell>
        <mxCell id="VXKyjhs7TOJEmw1eBfXi-11" value="Kubernetes namespace" style="rounded=0;whiteSpace=wrap;html=1;" vertex="1" parent="1">
          <mxGeometry x="-650" y="-740" width="150" height="30" as="geometry" />
        </mxCell>
        <mxCell id="VXKyjhs7TOJEmw1eBfXi-12" value="Kubernetes pod" style="rounded=0;whiteSpace=wrap;html=1;" vertex="1" parent="1">
          <mxGeometry x="-620" y="-670" width="120" height="30" as="geometry" />
        </mxCell>
        <mxCell id="VXKyjhs7TOJEmw1eBfXi-13" value="Kubernetes pod" style="rounded=0;whiteSpace=wrap;html=1;" vertex="1" parent="1">
          <mxGeometry x="-450" y="-670" width="120" height="30" as="geometry" />
        </mxCell>
        <mxCell id="VXKyjhs7TOJEmw1eBfXi-14" value="Kubernetes pod" style="rounded=0;whiteSpace=wrap;html=1;" vertex="1" parent="1">
          <mxGeometry x="-280" y="-670" width="120" height="30" as="geometry" />
        </mxCell>
        <mxCell id="VXKyjhs7TOJEmw1eBfXi-15" value="Kubernetes pod" style="rounded=0;whiteSpace=wrap;html=1;" vertex="1" parent="1">
          <mxGeometry x="-110" y="-670" width="120" height="30" as="geometry" />
        </mxCell>
        <mxCell id="VXKyjhs7TOJEmw1eBfXi-17" value="Container" style="rounded=0;whiteSpace=wrap;html=1;" vertex="1" parent="1">
          <mxGeometry x="-610" y="-610" width="120" height="60" as="geometry" />
        </mxCell>
        <mxCell id="VXKyjhs7TOJEmw1eBfXi-18" value="Container" style="rounded=0;whiteSpace=wrap;html=1;" vertex="1" parent="1">
          <mxGeometry x="-610" y="-540" width="120" height="60" as="geometry" />
        </mxCell>
        <mxCell id="VXKyjhs7TOJEmw1eBfXi-19" value="Container" style="rounded=0;whiteSpace=wrap;html=1;" vertex="1" parent="1">
          <mxGeometry x="-610" y="-470" width="120" height="60" as="geometry" />
        </mxCell>
        <mxCell id="VXKyjhs7TOJEmw1eBfXi-20" value="Container" style="rounded=0;whiteSpace=wrap;html=1;" vertex="1" parent="1">
          <mxGeometry x="-610" y="-400" width="120" height="60" as="geometry" />
        </mxCell>
      </root>
    </mxGraphModel>
  </diagram>
</mxfile>
